<?xml version="1.0" encoding="UTF-8" standalone="no"?>
<!-- Created with Inkscape (http://www.inkscape.org/) -->

<svg
   width="191.25706mm"
   height="34.644833mm"
   viewBox="0 0 191.25706 34.644832"
   version="1.1"
   id="svg1"
   xml:space="preserve"
   sodipodi:docname="sereto-inkscape-line-final-tucne.svg"
   inkscape:version="1.3.2 (1:1.3.2+202311252150+091e20ef0f)"
   xmlns:inkscape="http://www.inkscape.org/namespaces/inkscape"
   xmlns:sodipodi="http://sodipodi.sourceforge.net/DTD/sodipodi-0.dtd"
   xmlns="http://www.w3.org/2000/svg"
   xmlns:svg="http://www.w3.org/2000/svg"><sodipodi:namedview
     id="namedview1"
     pagecolor="#ffffff"
     bordercolor="#000000"
     borderopacity="0.25"
     inkscape:showpageshadow="2"
     inkscape:pageopacity="0.0"
     inkscape:pagecheckerboard="0"
     inkscape:deskcolor="#d1d1d1"
     inkscape:document-units="mm"
     inkscape:zoom="1.8689615"
     inkscape:cx="361.43067"
     inkscape:cy="65.544423"
     inkscape:window-width="1920"
     inkscape:window-height="1043"
     inkscape:window-x="0"
     inkscape:window-y="0"
     inkscape:window-maximized="1"
     inkscape:current-layer="layer1" /><defs
     id="defs1" /><g
     id="layer1"
     transform="translate(-8.9937919,-14.57976)"
     style="stroke:#000000;stroke-opacity:1"><path
       d="m 18.508506,46.10949 c 9.278812,0 10.654907,-4.875309 10.654907,-8.020669 0,-6.054818 -5.229161,-7.627498 -9.514714,-8.924959 -2.988092,-0.904291 -5.543697,-1.769265 -5.543697,-3.971017 0,-2.35902 2.909458,-2.909458 5.032576,-2.909458 2.634239,0 5.11121,0.864974 8.059985,2.476971 l 0.511121,-5.150527 c -1.415412,-0.943608 -4.993259,-2.123118 -8.767691,-2.123118 -7.430913,0 -9.9472011,4.600089 -9.9472011,8.25657 0,4.914625 4.2462361,6.29072 8.1386191,7.627498 3.341945,1.140193 6.408671,2.123118 6.408671,4.914625 0,2.241069 -1.96585,2.988092 -4.914625,2.988092 -4.128285,0 -7.155694,-1.454729 -8.6497397,-2.909458 l -0.5897554,5.740282 c 1.5726801,1.022242 4.9539421,2.005168 9.1215441,2.005168 z"
       id="text2"
       style="font-weight:bold;font-size:39.317px;font-family:Cabin;-inkscape-font-specification:'Cabin, Bold';fill:#000000;stroke-width:0.0785985;stroke:#000000;stroke-opacity:1"
       aria-label="S" /><path
       d="M 96.448162,45.695042 90.236076,34.135843 c 2.594922,-1.611997 4.678723,-3.774432 4.678723,-8.020668 0,-5.976184 -4.167602,-7.942034 -9.475397,-7.942034 H 75.374249 v 27.521901 h 5.032576 V 35.472621 h 5.111211 l 5.700965,10.222421 z M 84.299208,22.38006 c 4.324871,0 5.347113,1.533363 5.347113,4.088968 0,2.476971 -0.982925,4.285553 -5.543698,4.285553 H 80.406825 V 22.38006 Z"
       id="text2-7"
       style="font-weight:bold;font-size:39.317px;font-family:Cabin;-inkscape-font-specification:'Cabin, Bold';fill:#000000;stroke-width:0.0785985;stroke:#000000;stroke-opacity:1"
       aria-label="R" /><path
       d="m 161.97242,23.250895 v -4.875308 h -20.60211 v 4.875308 h 7.78476 v 22.646593 h 5.03258 V 23.250895 Z"
       id="text2-9"
       style="font-weight:bold;font-size:39.317px;font-family:Cabin;-inkscape-font-specification:'Cabin, Bold';fill:#000000;stroke-width:0.079;stroke:#000000;stroke-opacity:1;stroke-dasharray:none"
       aria-label="T" /><path
       style="fill:none;stroke:#000000;stroke-width:3;stroke-dasharray:none;stroke-opacity:1"
       d="m 37.168182,47.724595 v -31.4726 h 19.534706 l 7.95859,7.95859 v 23.51401 z"
       id="path15" /><path
       style="fill:none;stroke:#000000;stroke-width:3.166;stroke-dasharray:none;stroke-opacity:1"
       d="m 56.502311,17.189825 v 7.513935 h 7.291221"
       id="path16" /><path
       style="fill:#999999;fill-opacity:1;stroke:#000000;stroke-width:2.87992;stroke-dasharray:none;stroke-opacity:1"
       d="M 42.029098,24.789811 H 53.363799"
       id="path17-6" /><path
       style="fill:#999999;fill-opacity:1;stroke:#000000;stroke-width:3;stroke-dasharray:none;stroke-opacity:1"
       d="m 42.186862,32.849153 h 7.95859"
       id="path18-7" /><path
       style="fill:#999999;fill-opacity:1;stroke:#000000;stroke-width:3;stroke-dasharray:none;stroke-opacity:1"
       d="M 41.992522,41.363836 H 56.824438"
       id="path19-1" /><path
       style="fill:none;stroke:#000000;stroke-width:3;stroke-dasharray:none;stroke-opacity:1"
       d="m 105.51786,47.55236 v -31.4726 h 19.53471 l 7.95859,7.95859 v 23.51401 z"
       id="path15-4" /><path
       style="fill:none;stroke:#000000;stroke-width:3.166;stroke-dasharray:none;stroke-opacity:1"
       d="m 124.85199,17.01759 v 7.513935 h 7.29122"
       id="path16-2" /><path
       style="fill:#999999;fill-opacity:1;stroke:#000000;stroke-width:2.87992;stroke-dasharray:none;stroke-opacity:1"
       d="m 110.37878,24.617576 h 11.3347"
       id="path17-6-4" /><path
       style="fill:#999999;fill-opacity:1;stroke:#000000;stroke-width:3;stroke-dasharray:none;stroke-opacity:1"
       d="m 110.53654,32.676918 h 7.95859"
       id="path18-7-3" /><path
       style="fill:#999999;fill-opacity:1;stroke:#000000;stroke-width:3;stroke-dasharray:none;stroke-opacity:1"
       d="m 110.3422,41.191601 h 14.83192"
       id="path19-1-6" /><path
       style="fill:none;stroke:#000000;stroke-width:3;stroke-linecap:round;stroke-linejoin:bevel;stroke-dasharray:none;stroke-opacity:1"
       d="m 183.549,16.445394 v 14.18218"
       id="path22" /><path
       style="fill:none;stroke:#000000;stroke-width:3;stroke-linejoin:round;stroke-dasharray:none;stroke-opacity:1"
       d="m 195.04549,20.479981 -11.41585,10.072806 14.77345,-3.357606"
       id="path23" /><circle
       style="fill:none;stroke:#000000;stroke-width:3;stroke-dasharray:none;stroke-opacity:1"
       id="path20"
       cx="183.13802"
       cy="31.699638"
       r="15.61284" /></g></svg>
