<?xml version="1.0" encoding="UTF-8" standalone="no"?>
<!-- Created with Inkscape (http://www.inkscape.org/) -->

<svg
   width="160mm"
   height="170.00002mm"
   viewBox="0 0 160 170.00002"
   version="1.1"
   id="svg1"
   xml:space="preserve"
   sodipodi:docname="sereto-blok-bile.svg"
   inkscape:version="1.3.2 (091e20e, 2023-11-25, custom)"
   inkscape:export-filename="sereto-blok-cerne.svg"
   inkscape:export-xdpi="96"
   inkscape:export-ydpi="96"
   xmlns:inkscape="http://www.inkscape.org/namespaces/inkscape"
   xmlns:sodipodi="http://sodipodi.sourceforge.net/DTD/sodipodi-0.dtd"
   xmlns="http://www.w3.org/2000/svg"
   xmlns:svg="http://www.w3.org/2000/svg"><sodipodi:namedview
     id="namedview1"
     pagecolor="#000000"
     bordercolor="#000000"
     borderopacity="0.25"
     inkscape:showpageshadow="2"
     inkscape:pageopacity="0.0"
     inkscape:pagecheckerboard="0"
     inkscape:deskcolor="#d1d1d1"
     inkscape:document-units="mm"
     showguides="true"
     inkscape:zoom="1.2777817"
     inkscape:cx="302.08602"
     inkscape:cy="321.25987"
     inkscape:window-width="1920"
     inkscape:window-height="1017"
     inkscape:window-x="1050"
     inkscape:window-y="-8"
     inkscape:window-maximized="1"
     inkscape:current-layer="layer1"><sodipodi:guide
       position="49.281367,112.43607"
       orientation="1,0"
       id="guide1"
       inkscape:locked="false" /><sodipodi:guide
       position="42.448236,143.2887"
       orientation="1,0"
       id="guide2"
       inkscape:locked="false" /><sodipodi:guide
       position="109.95129,128.17298"
       orientation="1,0"
       id="guide3"
       inkscape:locked="false" /><sodipodi:guide
       position="117.61267,128.58711"
       orientation="1,0"
       id="guide4"
       inkscape:locked="false" /></sodipodi:namedview><defs
     id="defs1"><linearGradient
       id="swatch4"><stop
         style="stop-color:#000000;stop-opacity:1;"
         offset="0"
         id="stop4" /></linearGradient></defs><g
     id="layer1"
     transform="translate(-0.52916667)"
     style="fill:#ffffff"><path
       style="font-size:146.06px;font-family:'Segoe UI';-inkscape-font-specification:'Segoe UI, Normal';stroke-width:12.1718;fill:#ffffff"
       d="M 49.15104,136.59182 Q 27.256304,136.30654 27.256304,114.48313 V 93.08762 q 0,-14.406309 -11.125664,-15.119492 v -8.27293 Q 27.256304,68.982015 27.256304,54.290433 V 33.465472 q 0,-22.108691 21.894736,-22.393964 v 9.12875 Q 37.811421,20.485531 37.811421,34.321293 v 20.896278 q 0,14.976856 -10.697754,18.400137 v 0.285273 q 10.697754,3.209326 10.697754,18.2575 v 20.611009 q 0,7.91633 2.496143,11.2683 2.56746,3.42328 8.843476,3.56592 z"
       id="text1"
       transform="scale(0.87309968,1.1453446)"
       aria-label="{" /><path
       style="font-size:146.059px;font-family:'Segoe UI';-inkscape-font-specification:'Segoe UI, Normal';stroke-width:12.1718;fill:#ffffff"
       d="m -135.36076,-11.338119 q -21.89459,-0.285271 -21.89459,-22.108541 v -21.395362 q 0,-14.40621 -11.12559,-15.119389 v -8.272873 q 11.12559,-0.713179 11.12559,-15.404661 v -20.824815 q 0,-22.10855 21.89459,-22.39382 v 9.12869 q -11.33955,0.28527 -11.33955,14.12094 v 20.896137 q 0,14.976754 -10.69768,18.400012 v 0.285271 q 10.69768,3.209304 10.69768,18.257376 v 20.610865 q 0,7.916284 2.49613,11.268224 2.56744,3.423258 8.84342,3.565894 z"
       id="text1-2"
       transform="scale(-0.87309968,-1.1453446)"
       aria-label="{" /><path
       style="fill:#ffffff;stroke:#ffffff;stroke-width:2;stroke-dasharray:none;stroke-opacity:1;fill-opacity:0"
       d="m 81.891034,58.21546 v -31.4726 h 19.534706 l 7.95859,7.95859 v 23.51401 z"
       id="path15" /><path
       style="fill:#000000;stroke:#ffffff;stroke-width:2;stroke-dasharray:none;stroke-opacity:1;fill-opacity:0"
       d="m 102.14925,27.10462 v 7.59683 h 6.14982"
       id="path16" /><path
       style="fill:#ffffff;fill-opacity:1;stroke:#ffffff;stroke-width:2;stroke-dasharray:none;stroke-opacity:1"
       d="m 86.715374,34.657928 h 12.29964"
       id="path17-6" /><path
       style="fill:#ffffff;fill-opacity:1;stroke:#ffffff;stroke-width:2;stroke-dasharray:none;stroke-opacity:1"
       d="m 86.909714,42.810851 h 7.95859"
       id="path18-7" /><path
       style="fill:#ffffff;fill-opacity:1;stroke:#ffffff;stroke-width:2;stroke-dasharray:none;stroke-opacity:1"
       d="M 86.715374,51.854701 H 101.54729"
       id="path19-1" /><path
       style="fill:#ffffff;stroke:#ffffff;stroke-width:2;stroke-linecap:round;stroke-dasharray:none;stroke-opacity:1;fill-opacity:0"
       d="M 82.272674,99.580732 V 68.108136 h 19.534706 l 7.95859,7.958586 v 23.51401 z"
       id="path15-6" /><path
       style="fill:#ffffff;stroke:#ffffff;stroke-width:2;stroke-dasharray:none;stroke-opacity:1;fill-opacity:0"
       d="m 102.53089,68.469896 v 7.596826 h 6.14982"
       id="path16-8" /><path
       style="fill:#ffffff;fill-opacity:1;stroke:#ffffff;stroke-width:2;stroke-dasharray:none;stroke-opacity:1"
       d="m 87.097014,76.023202 h 12.29964"
       id="path17-6-0" /><path
       style="fill:#ffffff;fill-opacity:1;stroke:#ffffff;stroke-width:2;stroke-dasharray:none;stroke-opacity:1"
       d="m 87.291354,84.176122 h 7.95859"
       id="path18-7-2" /><path
       style="fill:#ffffff;fill-opacity:1;stroke:#ffffff;stroke-width:2;stroke-dasharray:none;stroke-opacity:1"
       d="M 87.097014,93.219972 H 101.92893"
       id="path19-1-7" /><path
       style="fill:#ffffff;stroke:#ffffff;stroke-width:1.896;stroke-linecap:round;stroke-linejoin:bevel;stroke-dasharray:none;stroke-opacity:1"
       d="m 95.316924,111.65515 v 12.95389"
       id="path22" /><path
       style="fill:#ffffff;stroke:#ffffff;stroke-width:2;stroke-linejoin:round;stroke-dasharray:none;stroke-opacity:1;fill-opacity:0"
       d="m 105.81773,115.34031 -10.427146,9.20042 13.493946,-3.06681"
       id="path23" /><path
       id="path20"
       style="fill:#ffffff;stroke:#ffffff;stroke-width:2;stroke-opacity:1;fill-opacity:0"
       d="M 109.20175,125.58826 A 14.260644,14.260644 0 0 1 94.941109,139.8489 14.260644,14.260644 0 0 1 80.680465,125.58826 14.260644,14.260644 0 0 1 94.941109,111.32761 14.260644,14.260644 0 0 1 109.20175,125.58826 Z" /></g><path
     d="m 58.329462,56.570035 c 9.278812,0 10.654907,-4.87531 10.654907,-8.02067 0,-6.054814 -5.229161,-7.627494 -9.514714,-8.924955 -2.988092,-0.904291 -5.543697,-1.769265 -5.543697,-3.971017 0,-2.35902 2.909458,-2.909458 5.032576,-2.909458 2.634239,0 5.11121,0.864974 8.059985,2.476971 l 0.511121,-5.150527 c -1.415412,-0.943608 -4.993259,-2.123118 -8.767691,-2.123118 -7.430913,0 -9.947201,4.600089 -9.947201,8.25657 0,4.914625 4.246236,6.29072 8.138619,7.627494 3.341945,1.1402 6.408671,2.12312 6.408671,4.91463 0,2.24107 -1.96585,2.98809 -4.914625,2.98809 -4.128285,0 -7.155694,-1.45473 -8.64974,-2.90946 l -0.589755,5.74029 c 1.57268,1.02224 4.953942,2.00516 9.121544,2.00516 z"
     id="text2-3"
     style="font-weight:bold;font-size:39.317px;font-family:Cabin;-inkscape-font-specification:'Cabin, Bold';fill:#ffffff;stroke:#ffffff;stroke-width:0.0785985;stroke-opacity:1"
     aria-label="S" /><path
     d="m 70.215515,96.855279 -6.21209,-11.55919 c 2.59492,-1.612001 4.67872,-3.774436 4.67872,-8.020672 0,-5.976184 -4.1676,-7.942034 -9.47539,-7.942034 h -10.06516 v 27.521896 h 5.03258 v -10.22242 h 5.11121 l 5.70096,10.22242 z M 58.066555,73.540302 c 4.32487,0 5.34711,1.533363 5.34711,4.088968 0,2.476971 -0.98292,4.285553 -5.54369,4.285553 h -3.6958 v -8.374521 z"
     id="text2-7-5"
     style="font-weight:bold;font-size:39.317px;font-family:Cabin;-inkscape-font-specification:'Cabin, Bold';fill:#ffffff;stroke:#ffffff;stroke-width:0.0785985;stroke-opacity:1"
     aria-label="R" /><path
     d="m 69.57114,116.88239 v -4.87531 H 48.96903 v 4.87531 h 7.78476 v 22.64659 h 5.03258 v -22.64659 z"
     id="text2-9-5"
     style="font-weight:bold;font-size:39.317px;font-family:Cabin;-inkscape-font-specification:'Cabin, Bold';fill:#ffffff;stroke:#ffffff;stroke-width:0.079;stroke-dasharray:none;stroke-opacity:1"
     aria-label="T" /></svg>
